<?xml version='1.0' encoding='utf-8'?>
<svg xmlns="http://www.w3.org/2000/svg" version="1.1" width="720px" height="1358px" viewBox="0 0 720 1358"> <g id="layer1"> <g> <g style="fill:rgb(0,0,0); fill-opacity:1.0; stroke-linejoin: miter"> <path d="M189.42307,568.52966C185.29584,569.02405,178.90436,570.4098,174.75575,571.75244C171.6443,572.7593,170.82463,572.90186,166.696,573.2047C161.11815,573.59985,157.26485,574.147,152.4031,575.22107C144.26367,577.0022,138.88777,578.87317,131.85492,582.3974C117.952774,589.36237,107.63076,599.69415,100.970604,613.33734C100.1886,614.9295,99.51404,616.2475,99.48709,616.3023C99.43274,616.35736,98.69031,615.8155,97.809906,615.1104C96.929504,614.4056,95.69293,613.62103,95.08917,613.35175C92.674194,612.2745,90.24466,613.0031,88.45557,615.31366C87.47992,616.6064,87.42539,616.6341,85.594,616.83856C79.716995,617.4821,77.29506,619.2774,76.61354,623.4677C76.351425,625.08356,76.27052,625.2482,75.56029,625.3901C74.1945,625.6734,71.71456,627.00415,70.54604,628.1067C68.99692,629.54016,68.27136,631.3782,68.10065,634.3065L67.9534,636.6875L66.108246,638.807C63.72003,641.50476,62.884277,643.23413,62.90094,645.5867C62.917847,647.96655,63.611023,649.2748,65.92398,651.3921L67.79611,653.07495L66.24698,654.5084C65.40466,655.30774,64.401215,656.5458,63.996155,657.28735C62.106354,660.8297,63.10858,663.28467,67.36371,665.3882L68.7912,666.08936L68.813324,669.2079C68.83389,672.1074,68.89075,672.40784,69.667725,673.9617C70.13919,674.8611,70.96798,676.00415,71.49081,676.4381C72.564445,677.38806,75.145256,678.7102,76.405754,679.0021C78.488174,679.47986,79.28322,679.72034,79.284775,679.9391C79.28554,680.04846,77.25026,682.36096,74.780174,685.08655C69.24234,691.11694,67.20743,693.484,66.722046,694.4724C66.10162,695.70764,64.97931,699.4635,64.530396,701.7372C63.659485,706.2297,64.14588,709.23553,66.47708,713.92426C68.36398,717.686,68.90372,720.4998,68.38049,723.8682C68.09317,725.78534,68.12363,726.2227,68.661224,728.73566C69.451996,732.2316,71.27005,737.8542,72.436584,740.33527C72.93637,741.3713,73.93393,743.16974,74.68045,744.28595C75.39966,745.4024,76.61685,747.3088,77.33679,748.5346C79.85574,752.7022,83.23827,755.195,87.621605,756.09406C90.63509,756.70197,93.2328,756.5467,98.0125,755.4732C98.74989,755.3038,99.05202,755.4659,100.70357,756.9041C102.63042,758.58636,105.40468,760.1807,107.81773,760.9843C108.969345,761.3592,109.27199,761.6031,109.440384,762.2038C109.55275,762.61334,110.0717,766.3575,110.56624,770.51196C111.55412,778.6571,112.14604,781.1151,113.69514,783.5386C115.797646,786.83374,118.08262,788.8694,121.733376,790.6216C122.88639,791.18787,123.84787,791.7555,123.84866,791.86487C123.84943,791.97437,123.44569,792.90735,122.93314,793.9231C116.245445,807.5393,110.78835,828.8063,108.55813,849.9136C105.63552,877.53674,106.84742,905.6776,113.097015,953.6978C116.077805,976.6832,116.91963,983.51624,117.88713,992.64636C121.64241,1028.4014,120.351776,1050.8428,113.55817,1068.8091C112.88671,1070.5647,112.405205,1072.1001,112.48766,1072.154C112.570305,1072.2356,134.28955,1072.0269,160.74037,1071.675C187.21875,1071.3503,217.8003,1070.9966,228.76953,1070.9187L248.65639,1070.7776L248.4676,1067.3047C248.37175,1065.363,248.25008,1063.6406,248.1667,1063.4497C247.99852,1062.8762,248.54903,1051.7932,248.76613,1051.5454C248.8748,1051.4353,250.43556,1051.6431,252.24348,1051.9858C263.74896,1054.2295,279.4643,1056.0603,293.69455,1056.78C303.79254,1057.283,320.28857,1057.3301,358.69397,1056.9753C401.88647,1056.5869,399.61682,1056.7124,405.29358,1054.8391C408.9781,1053.6367,411.5943,1052.2229,416.73932,1048.6575C423.81708,1043.7651,427.14197,1041.991,433.09106,1039.9517C436.77502,1038.6672,438.1139,1038.4387,439.922,1038.8091C442.71606,1039.3364,446.28787,1041.5269,449.12637,1044.4612C449.73264,1045.0859,450.55814,1045.7642,450.94254,1045.9529C454.07254,1047.572,470.1802,1046.856,475.856,1044.846C479.4852,1043.5618,479.6732,1043.0681,478.19376,1038.8931C475.7089,1031.8254,471.69937,1025.781,466.19254,1020.75916C464.23758,1018.96747,459.7034,1016.09985,457.39877,1015.1588C455.5057,1014.3789,451.5057,1013.5319,449.83707,1013.54376C449.39938,1013.5469,449.04324,1013.4672,449.04227,1013.3305C449.03976,1012.9749,451.84506,1011.23157,453.264,1010.729C454.9559,1010.1426,458.10135,1010.0656,460.84042,1010.5659C462.4841,1010.8825,464.70682,1011.85156,473.13437,1015.97723C484.44455,1021.53235,486.91437,1022.6364,489.32605,1023.24854C491.29932,1023.7542,494.52716,1023.7313,495.6999,1023.2307C496.98187,1022.70184,498.06616,1021.299,498.0584,1020.20483C498.05237,1019.35675,497.94214,1019.24817,496.2138,1018.5491C492.01593,1016.8008,486.16867,1013.91516,477.60135,1009.3801C464.06357,1002.17194,458.54764,999.7217,453.45132,998.5817C451.47855,998.1306,449.94626,998.0868,437.71875,998.1735C425.9289,998.25714,423.9052,998.3535,422.13007,998.77655C419.6175,999.36884,417.16394,1000.56256,415.55988,1001.969C414.90747,1002.54816,413.27448,1003.73615,411.91296,1004.6211C408.5094,1006.8611,406.52295,1008.35236,399.8047,1013.7893C387.18372,1023.9733,381.35712,1027.8718,375.0829,1030.3511C371.15442,1031.8833,368.232,1032.5334,364.78546,1032.5852L361.77667,1032.6338L346.01483,1028.1226C337.35278,1025.6399,329.07455,1023.2913,327.6492,1022.89105C323.26334,1021.6364,312.71005,1018.6474,307.2278,1017.0997C304.3771,1016.2992,296.59253,1014.1114,289.95886,1012.2162C278.11722,1008.85333,265.508,1005.27686,261.17725,1004.07666C259.97125,1003.7569,255.09206,1002.3689,250.34978,1001.0074C245.60774,999.67334,239.68694,997.992,237.1924,997.27106C220.33472,992.52124,214.27655,990.7587,214.08386,990.596C213.94632,990.4875,214.00763,987.56,214.22958,984.1389C214.94287,972.86316,215.0816,969.2785,215.32402,957.1853C215.93294,927.3356,213.46434,895.56537,208.66937,871.3617C205.51987,855.43555,200.98123,840.36707,196.00537,829.21387C195.44934,827.95935,195.28018,827.24927,195.44315,827.0841C195.98636,826.5331,200.07367,835.8324,203.1171,844.51013C207.97656,858.5366,211.48244,874.5698,213.86183,893.7571C216.03844,911.3588,216.81508,924.42957,216.96996,946.25854C217.0837,962.2884,216.96014,968.00684,216.13644,983.0038C215.91779,986.8899,215.80392,990.1187,215.8866,990.20013C215.94168,990.2546,221.22815,991.20184,227.60992,992.30554C233.9915,993.38184,242.5644,994.8529,246.6179,995.5354C250.69902,996.24506,254.06752,996.7683,254.14897,996.68555C254.20332,996.6305,254.75096,992.85144,255.34795,988.3061C255.94484,983.7608,257.50348,972.09607,258.8023,962.3754C265.50385,912.1568,265.16895,915.0863,265.1142,903.5151C265.04822,894.2145,264.75018,890.7697,263.44452,884.1041C260.6361,869.98096,254.65413,855.82556,243.88522,837.87427C240.3974,832.0995,236.81741,824.90295,233.03522,816.20325C226.19356,800.41254,221.73358,792.56573,215.61118,785.6059C214.83905,784.7359,214.2312,783.89215,214.25778,783.78265C214.39145,783.34406,209.52774,776.43,207.21054,773.7109L205.0039,771.1551L204.79669,768.9406C204.67871,767.738,204.51926,764.5384,204.47266,761.8304C204.35608,756.96185,204.35568,756.90717,203.72421,756.5833C203.36719,756.39435,202.95554,756.2059,202.81836,756.15216C202.462,756.0452,204.12189,750.94525,205.46982,748.1453C207.05988,744.7692,208.03708,743.6955,209.94843,743.1894C214.86334,741.8962,224.32574,741.5008,235.81937,742.07574C242.08612,742.3869,243.94485,742.1822,246.69873,740.9044C249.64334,739.5156,251.78787,737.17505,252.88727,734.0488C253.37015,732.70496,253.44714,731.99316,253.3453,729.2035C253.09888,721.4635,253.12387,721.135,253.93307,719.51526C254.33755,718.6918,255.53012,717.124,256.56186,716.02234C259.19528,713.18604,259.59512,711.70593,258.2683,709.7731C257.88144,709.22876,257.5759,708.57434,257.57416,708.3281C257.57224,708.05457,258.44037,707.03625,259.4727,706.0167C260.74936,704.7492,261.37292,703.9515,261.3698,703.51385C261.36728,703.15826,260.81186,701.9858,260.14777,700.92365C257.76846,697.16534,257.87033,696.09784,260.91345,693.1766C265.5597,688.71173,266.67053,687.1994,266.49384,685.4224C266.46472,685.17645,265.58356,684.3621,264.51105,683.57635C262.22882,681.92377,257.65433,677.2237,254.39813,673.25275C253.10123,671.67535,251.94183,670.20636,251.83066,669.9609C251.63684,669.634,252.04196,668.8925,253.3695,667.0776C255.10333,664.68524,256.75003,661.58246,257.0944,659.9932C257.25327,659.2536,257.08994,659.3642,255.21487,661.12836C253.23157,663.0572,252.05978,663.69476,250.50055,663.7059L249.87137,663.71027L249.81491,655.75006C249.7196,642.3189,249.21231,640.21606,243.19171,628.3316C240.83339,623.6704,238.39452,619.22864,237.78691,618.41235L236.62752,616.94336L238.10951,613.7594C240.6422,608.2977,241.78683,603.83057,241.75558,599.4264C241.70007,591.603,237.90901,585.5021,229.85724,580.3616C228.12592,579.2522,225.5144,577.4652,224.08423,576.3812C218.74904,572.42505,211.09593,569.4977,203.6487,568.5928C200.25359,568.1793,192.75784,568.1504,189.42307,568.52966 Z M158.1905,935.92474C158.32924,936.1973,158.53566,938.30225,158.66136,940.5993C160.31844,973.661,167.09401,1007.12415,176.66318,1029.4883C177.83173,1032.2432,177.9718,1032.707,177.56146,1032.71C177.45206,1032.7107,176.67618,1031.321,175.87085,1029.6306C166.73532,1010.5463,160.43996,983.0707,157.68922,950.09875C157.00206,941.92413,156.60414,935.9634,156.76628,935.68866C157.00978,935.3039,157.941,935.4615,158.1905,935.92474 Z"/> </g> <g style="fill:rgb(0,0,0); fill-opacity:1.0; stroke-linejoin: miter"> <path d="M625.92566,805.04456C625.92664,805.1813,620.1488,823.6604,606.4533,867.44525C599.498,889.6257,591.50006,915.20557,580.31885,950.92993C574.05975,970.9716,567.8538,990.79407,566.54266,994.934C565.2316,999.0741,561.7012,1010.42474,558.65173,1020.1578C555.6022,1029.8909,552.312,1040.419,551.3225,1043.5991C550.30536,1046.7524,549.58575,1049.4385,549.66864,1049.5474C549.8615,1049.7375,564.20105,1054.3135,564.6388,1054.3103C564.77563,1054.3093,566.1959,1050.1411,567.801,1045.0415C569.379,1039.9695,572.9635,1028.5093,575.7455,1019.6261C578.5272,1010.7157,582.5398,997.9118,584.6256,991.1675C587.08594,983.2167,588.47974,979.1581,588.53796,979.6501C588.5956,980.06006,588.81824,980.60565,589.0112,980.8231C589.20435,981.0405,592.9513,988.64636,597.338,997.72473C601.7248,1006.80334,607.24945,1018.199,609.63666,1023.0788C625.6275,1056.0115,625.7944,1056.3931,625.8138,1059.1287C625.8332,1061.8643,624.3648,1063.1057,620.2122,1063.9011C618.8736,1064.1567,609.7956,1064.741,596.1772,1065.4395C584.1449,1066.0444,567.546,1066.9282,559.2874,1067.3425C551.0291,1067.7842,544.1104,1068.1343,543.919,1068.1355C543.6728,1068.1375,543.53815,1068.4392,543.54156,1068.9316L543.5472,1069.7249L546.63947,1069.867C548.30865,1069.9373,566.1448,1069.9199,586.22327,1069.8049C626.62665,1069.6003,624.5756,1069.6968,628.47455,1067.8638C630.71,1066.781,631.98737,1065.5957,632.8769,1063.7292C633.49664,1062.4116,633.62946,1061.8362,633.5898,1060.113C633.54425,1057.542,632.6744,1054.4568,631.11957,1051.2397C628.45465,1045.7876,602.9967,993.3076,595.2511,977.332C593.1968,973.1063,591.53,969.53455,591.52905,969.3978C591.5281,969.261,592.3031,966.684,593.2394,963.69556C595.3263,957.08795,602.46826,934.2497,616.1368,890.4924C621.754,872.53424,627.93274,852.7393,629.91284,846.488C637.83093,821.2097,641.28094,810.10596,641.279,809.8324C641.2779,809.66833,640.7011,809.3441,639.98834,809.1304C639.248,808.8894,635.93066,807.8734,632.6133,806.8301C626.88306,805.0377,625.9238,804.79834,625.92566,805.04456 Z"/> </g> <g style="fill:rgb(0,0,0); fill-opacity:1.0; stroke-linejoin: miter"> <path d="M523.0289,1050.2561C513.7046,1050.842,491.091,1052.2334,469.84415,1053.4785C462.70737,1053.9121,453.60178,1054.4692,449.60953,1054.7163C445.61728,1054.9634,440.03912,1055.304,437.16803,1055.4885C404.76495,1057.4417,395.11243,1058.03,390.6825,1058.2803C377.11963,1059.0876,372.0376,1059.9719,369.78076,1061.9028C369.31848,1062.2891,368.61346,1063.1694,368.2082,1063.8835C367.53247,1065.0374,367.4803,1065.3933,367.49792,1067.8826L367.51733,1070.6182L450.75833,1070.1096L533.9716,1069.574L533.9648,1068.6165C533.9588,1067.7686,534.5433,1065.3296,536.487,1057.8203C537.9516,1052.1746,536.8658,1049.5288,533.0915,1049.6375C532.38043,1049.6699,527.8414,1049.9485,523.0289,1050.2561 Z"/> </g> </g> </g> </svg>